<?xml version="1.0" standalone="no"?>
<!DOCTYPE svg PUBLIC "-//W3C//DTD SVG 20010904//EN"
 "http://www.w3.org/TR/2001/REC-SVG-20010904/DTD/svg10.dtd">
<svg version="1.0" xmlns="http://www.w3.org/2000/svg"
 width="288.000000pt" height="288.000000pt" viewBox="0 0 288.000000 288.000000"
 preserveAspectRatio="xMidYMid meet">
<metadata>
Created by potrace 1.14, written by Peter Selinger 2001-2017
</metadata>
<g transform="translate(0.000000,288.000000) scale(0.100000,-0.100000)"
fill="#000000" stroke="none">
<path d="M0 2399 l0 -480 22 15 c24 17 65 21 86 7 9 -5 12 -24 10 -52 -3 -38
-6 -44 -26 -44 -17 0 -31 -15 -57 -60 l-34 -60 0 -380 c0 -318 2 -377 13 -362
7 9 17 17 22 17 5 0 24 18 43 40 19 22 40 40 49 40 10 0 12 -4 5 -12 -6 -7
-13 -28 -17 -46 -6 -36 -93 -145 -107 -136 -5 3 -9 -49 -9 -119 0 -110 2 -126
18 -132 16 -6 16 -7 -1 -19 -15 -12 -17 -30 -16 -139 l0 -125 27 -5 c32 -7 70
-33 60 -42 -3 -4 -25 -9 -48 -12 l-41 -6 3 -61 3 -61 83 3 c78 4 84 2 89 -17
3 -14 10 -18 17 -13 6 4 20 7 31 5 11 -2 37 -6 57 -9 52 -8 68 -30 35 -45 -19
-9 -34 -9 -58 0 -33 11 -33 11 -13 -7 21 -20 76 -20 101 0 7 5 17 7 22 4 5 -4
12 -2 15 2 8 13 58 2 53 -11 -2 -7 -13 -14 -25 -17 -15 -3 -19 -9 -13 -18 10
-17 61 -5 61 14 0 15 26 19 34 5 9 -13 52 -19 70 -9 10 5 16 5 16 0 0 -6 -7
-13 -16 -16 -24 -9 -10 -19 15 -11 12 3 21 13 21 21 0 8 10 14 25 14 14 0 25
-3 25 -7 0 -5 11 -13 24 -19 18 -8 30 -8 50 3 24 13 32 12 70 -6 49 -24 136
-29 136 -8 0 24 70 77 101 77 16 0 29 4 29 9 0 5 14 14 31 21 25 11 32 11 39
1 4 -7 10 -12 14 -12 20 3 26 0 21 -9 -3 -5 0 -10 7 -10 7 1 22 20 33 43 13
27 29 44 45 48 15 4 18 7 8 8 -22 1 -23 15 -3 35 8 8 15 21 15 30 0 8 5 18 11
22 6 3 9 15 6 25 -3 11 -2 17 1 15 4 -2 25 -7 47 -10 72 -11 71 -11 68 -73 -1
-32 0 -70 3 -86 6 -27 7 -27 80 -27 41 0 73 -3 73 -7 -4 -22 2 -43 11 -43 6 0
10 13 10 29 0 26 4 29 36 33 19 2 54 2 77 -2 35 -4 42 -9 40 -25 -5 -38 10
-47 46 -29 42 21 99 34 117 27 8 -3 14 -13 14 -22 0 -14 7 -17 29 -13 16 2 38
-1 49 -7 15 -8 32 -7 65 3 25 8 48 12 50 9 3 -2 23 14 45 37 l39 41 11 -28 c6
-15 12 -49 14 -75 l2 -48 38 0 c35 0 38 2 38 29 0 16 7 34 15 41 20 16 69 4
61 -15 -4 -12 -1 -12 19 -3 13 6 22 15 18 21 -3 6 -1 7 4 4 6 -4 40 -7 77 -8
37 -1 69 -6 72 -10 3 -5 10 -7 15 -3 5 3 7 10 4 15 -4 5 21 9 59 9 36 0 66 4
66 9 0 15 -120 24 -255 19 -111 -5 -125 -3 -125 11 0 30 30 61 59 61 15 0 32
5 38 11 5 5 29 10 52 11 22 0 41 4 41 9 0 5 -9 9 -21 9 -38 0 -14 24 47 47 78
28 131 29 165 0 34 -29 51 -82 40 -127 -8 -30 -9 -31 -11 -10 -2 31 -5 22 -20
-52 -10 -51 -14 -58 -35 -58 -13 0 -27 -4 -30 -10 -4 -6 37 -10 115 -10 l122
0 -6 108 c-3 59 -8 126 -12 150 -4 28 -2 42 5 42 7 0 11 21 11 55 0 41 -4 56
-17 64 -17 10 -16 10 2 11 l20 1 -20 16 c-16 13 -17 15 -2 10 12 -5 17 -1 17
14 0 15 -6 19 -22 17 -11 -2 -23 3 -26 11 -3 10 2 13 22 9 l26 -5 0 90 0 90
-37 -74 c-27 -52 -42 -73 -53 -69 -32 10 -119 0 -165 -20 -26 -11 -49 -19 -51
-17 -3 3 92 69 239 165 l67 45 0 92 0 93 -38 -13 c-20 -7 -60 -15 -87 -16 -66
-4 -68 18 -3 40 58 20 79 38 59 50 -11 7 -9 10 8 16 11 3 26 3 32 -1 12 -7 29
12 29 34 0 6 -8 12 -17 12 -17 1 -17 1 0 14 15 12 17 35 17 215 l0 202 -30
-16 c-27 -14 -30 -14 -30 0 0 9 13 21 30 26 l30 11 0 328 c0 304 -1 329 -17
333 -17 4 -17 5 0 6 16 1 17 25 17 366 l0 365 -350 0 c-192 0 -350 -3 -350 -7
0 -5 -7 -51 -15 -103 -8 -52 -15 -98 -15 -102 0 -5 -27 -8 -60 -8 -51 0 -60 3
-60 18 0 16 13 110 25 175 l5 27 -239 0 c-199 0 -241 -2 -251 -15 -8 -9 -21
-13 -36 -9 -29 8 -56 -12 -49 -36 4 -11 -3 -20 -21 -29 -32 -14 -42 -7 -26 20
7 10 10 30 6 44 l-6 25 -719 0 -719 0 0 -481z m1600 360 c0 -3 -11 -4 -25 -1
-28 5 -30 17 -14 59 l11 28 14 -40 c7 -22 14 -43 14 -46z m-66 39 c-3 -5 -12
-4 -20 3 -7 6 -11 15 -8 21 3 5 12 4 20 -3 7 -6 11 -15 8 -21z m0 -45 c4 -9 2
-21 -2 -27 -5 -6 -12 -59 -15 -118 -6 -104 -5 -107 16 -110 18 -2 25 -15 38
-68 9 -36 19 -95 23 -132 6 -63 5 -68 -13 -68 -11 0 -21 5 -23 12 -3 7 -15
-72 -28 -175 -26 -203 -22 -194 -95 -204 -22 -3 -60 -16 -85 -29 -25 -13 -59
-24 -75 -24 -22 0 -43 -11 -69 -35 -21 -19 -44 -36 -50 -36 -6 -1 -28 -3 -49
-4 -50 -3 -87 -37 -85 -80 1 -17 -9 -50 -22 -73 -18 -31 -21 -44 -12 -55 9
-10 5 -21 -16 -48 -16 -19 -40 -55 -55 -81 l-27 -46 33 -8 32 -7 -27 -9 c-66
-23 -18 -50 112 -62 83 -9 280 -48 302 -62 10 -5 21 -24 24 -42 6 -28 3 -34
-14 -39 -23 -5 -37 -42 -22 -57 6 -6 10 -19 10 -30 0 -34 46 -123 85 -165 20
-21 54 -46 75 -56 35 -16 40 -22 40 -51 0 -18 5 -45 12 -59 11 -25 12 -25 27
22 19 56 66 93 118 93 46 0 52 -23 15 -59 -30 -30 -48 -95 -43 -151 4 -38 51
-154 67 -163 22 -13 15 -30 -26 -65 -50 -43 -141 -66 -220 -57 -62 8 -90 20
-90 38 0 8 -14 26 -30 42 -26 25 -33 28 -48 17 -9 -7 -36 -22 -59 -33 -39 -18
-57 -39 -34 -39 5 0 4 -16 -2 -36 -8 -28 -13 -33 -21 -22 -6 7 -26 13 -44 14
-23 1 -30 -2 -23 -9 18 -18 12 -44 -11 -51 -32 -8 -78 -7 -78 2 1 12 34 49 49
54 7 2 14 21 16 43 2 22 12 61 23 87 20 46 21 46 78 54 46 5 69 2 120 -16 71
-25 86 -22 156 22 l48 30 -48 37 c-52 41 -91 85 -118 131 -10 16 -26 31 -36
33 -12 4 -18 14 -18 35 0 17 -7 57 -15 90 -13 48 -14 79 -7 149 5 48 11 93 12
98 8 33 -3 68 -29 93 -24 22 -49 32 -123 46 -51 10 -97 19 -103 20 -5 0 -9 -9
-8 -21 3 -28 -37 -57 -67 -48 -24 8 -26 21 -5 29 8 3 15 14 15 24 0 16 -12 22
-62 33 -35 7 -71 14 -81 15 -10 1 -23 6 -30 13 -18 18 -27 13 -27 -19 0 -19
-7 -33 -19 -40 -31 -16 -43 -13 -31 9 5 11 10 48 10 82 0 44 6 71 20 94 11 19
20 37 19 42 -4 24 4 33 30 33 16 0 39 10 55 25 l27 25 -21 40 c-18 35 -19 46
-10 75 13 39 70 93 153 145 51 32 56 38 57 72 0 44 30 71 64 58 14 -5 28 -3
40 6 11 7 23 11 29 7 5 -3 13 1 18 8 7 11 13 11 38 -4 37 -22 53 -22 49 1 -2
9 -10 17 -18 17 -11 0 -16 14 -18 52 -2 29 -9 56 -17 63 -24 20 -18 66 11 89
14 11 32 17 40 14 15 -6 15 -4 18 277 l1 126 40 62 c23 36 49 65 62 68 12 3
24 12 27 20 3 8 13 14 21 14 9 0 14 4 11 9 -4 5 3 7 13 4 11 -3 22 -12 25 -20z
m134 -5 c26 -26 1 -71 -35 -62 -25 7 -50 44 -29 44 8 0 16 7 20 15 7 18 28 19
44 3z m87 1 c4 -5 18 -14 32 -20 32 -12 20 -31 -15 -23 -34 8 -52 22 -52 40 0
16 26 19 35 3z m790 -9 c4 -6 10 -8 15 -5 4 3 6 -13 3 -35 -4 -26 -17 -52 -36
-73 -16 -18 -36 -42 -45 -54 -12 -19 -24 -23 -63 -23 -46 0 -49 2 -49 25 0 33
87 145 112 145 10 0 21 7 24 15 7 17 30 20 39 5z m295 -20 c0 -5 -7 -10 -15
-10 -8 0 -15 5 -15 10 0 6 7 10 15 10 8 0 15 -4 15 -10z m-1082 -72 c19 -19
14 -49 -8 -55 -21 -6 -26 -18 -11 -27 5 -3 15 1 22 10 7 8 25 22 41 30 16 8
28 23 28 34 0 17 7 20 39 20 33 0 39 -3 43 -25 6 -30 4 -32 -101 -86 -79 -41
-85 -43 -95 -25 -6 10 -25 38 -43 62 l-32 43 22 16 c26 18 78 20 95 3z m582
-88 c0 -6 -70 -11 -177 -12 l-178 -3 -6 -108 c-3 -59 -9 -110 -12 -113 -3 -4
-14 2 -24 12 -14 14 -19 39 -23 121 -3 64 -1 105 5 107 22 9 415 6 415 -4z
m-2238 -10 c6 0 8 -11 6 -24 -5 -22 -3 -23 35 -14 21 5 46 16 55 24 14 15 17
14 34 -8 21 -28 19 -54 -5 -50 -13 2 -17 -5 -18 -33 -2 -58 -3 -60 -26 -63
-16 -2 -23 2 -23 12 0 23 -21 20 -27 -4 -3 -11 -12 -20 -19 -20 -8 0 -14 -4
-14 -10 0 -5 5 -10 12 -10 9 0 9 -3 0 -12 -7 -7 -12 -25 -12 -40 0 -39 -18
-35 -37 10 -18 42 -25 219 -9 240 5 7 16 10 23 7 8 -3 19 -5 25 -5z m978 0 c0
-5 -9 -19 -20 -30 -21 -21 -26 -65 -10 -90 7 -12 12 -12 22 -2 6 6 22 12 34
12 18 0 23 7 28 45 4 25 12 45 17 45 6 0 17 7 26 16 12 11 19 12 27 4 8 -8 6
-15 -6 -24 -13 -10 -18 -27 -18 -63 0 -58 -7 -69 -31 -47 -15 14 -19 13 -43
-9 -24 -22 -26 -31 -26 -103 0 -90 -7 -124 -25 -124 -9 0 -14 34 -19 118 -3
64 -8 146 -11 181 -2 35 -2 68 1 73 7 11 54 10 54 -2z m808 -67 c-2 -50 -7
-78 -15 -81 -10 -3 -13 17 -13 77 0 66 3 81 15 81 13 0 15 -13 13 -77z m-1558
42 c0 -19 -5 -25 -22 -25 -19 0 -20 -2 -8 -10 17 -11 10 -13 -14 -4 -21 8 -20
16 4 42 27 29 40 28 40 -3z m94 16 c3 -5 -1 -14 -8 -20 -16 -13 -32 2 -21 19
8 12 22 13 29 1z m2090 -47 c10 -27 7 -44 -9 -44 -8 0 -15 6 -15 14 0 8 -3 21
-6 30 -4 10 -1 16 9 16 8 0 18 -7 21 -16z m-1536 -71 c-2 -10 -11 -19 -21 -21
-16 -3 -17 -1 -7 17 13 25 33 28 28 4z m902 -43 c0 -5 -4 -10 -10 -10 -5 0
-10 5 -10 10 0 6 5 10 10 10 6 0 10 -4 10 -10z m206 -83 c3 -8 1 -36 -4 -63
l-8 -49 -20 40 c-16 33 -25 41 -52 43 -19 2 -32 9 -32 17 0 13 13 16 93 23 10
1 20 -4 23 -11z m-1236 -12 c0 -8 -9 -19 -20 -25 -17 -9 -20 -22 -22 -78 -1
-55 -2 -58 -5 -20 -2 25 -11 52 -19 58 -19 17 -18 30 8 57 24 26 58 31 58 8z
m1710 -72 c0 -19 -3 -24 -10 -17 -6 6 -8 18 -4 27 9 24 14 21 14 -10z m-215
-64 c0 -22 4 -33 13 -31 6 1 12 -2 12 -8 0 -5 -10 -8 -22 -6 -13 2 -22 8 -21
14 3 15 -47 24 -63 11 -12 -10 -14 -2 -14 44 l0 55 48 -23 c42 -20 47 -26 47
-56z m-2250 60 c4 -6 4 -27 0 -47 -6 -35 -8 -36 -21 -17 -15 20 -19 57 -7 68
9 10 21 8 28 -4z m1900 -40 c0 -38 -3 -44 -22 -47 -20 -3 -23 1 -23 28 0 38
17 73 33 67 7 -2 12 -23 12 -48z m-379 15 c-3 -9 -6 -24 -6 -35 0 -23 -25 -25
-34 -3 -10 26 3 54 26 54 14 0 18 -5 14 -16z m1012 -52 c4 -13 -8 -15 -32 -6
-9 3 -14 10 -11 14 7 12 38 5 43 -8z m-153 -50 c-6 -15 -7 -15 -17 2 -8 15 -8
21 0 24 7 2 13 11 13 20 1 10 4 7 6 -6 3 -13 2 -31 -2 -40z m310 48 c-3 -5
-10 -10 -16 -10 -5 0 -9 5 -9 10 0 6 7 10 16 10 8 0 12 -4 9 -10z m-603 -12
c-9 -9 -15 -9 -24 0 -9 9 -7 12 12 12 19 0 21 -3 12 -12z m538 2 c0 -5 -4 -10
-10 -10 -5 0 -10 5 -10 10 0 6 5 10 10 10 6 0 10 -4 10 -10z m60 -20 c0 -5 -9
-10 -19 -10 -11 0 -23 5 -26 10 -4 6 5 10 19 10 14 0 26 -4 26 -10z m-1158
-42 c-7 -7 -12 -25 -12 -40 0 -35 -17 -36 -32 -3 -13 29 3 55 35 55 16 0 18
-3 9 -12z m88 -18 c0 -11 -7 -20 -15 -20 -15 0 -21 21 -8 33 12 13 23 7 23
-13z m-1282 -89 c5 -34 -10 -42 -37 -20 -28 23 -22 52 11 47 15 -2 24 -11 26
-27z m2126 14 c-4 -8 -8 -15 -10 -15 -2 0 -4 7 -4 15 0 8 4 15 10 15 5 0 7 -7
4 -15z m-1514 -45 c0 -11 -7 -20 -15 -20 -15 0 -21 21 -8 33 12 13 23 7 23
-13z m576 4 c-3 -9 -6 -27 -6 -40 0 -27 -24 -33 -34 -8 -9 24 -8 31 10 48 20
21 38 21 30 0z m-1207 -19 c19 -11 12 -28 -9 -22 -19 5 -20 0 -20 -61 0 -105
-4 -112 -61 -112 -30 0 -51 5 -56 14 -4 7 -18 18 -30 25 -30 16 -29 39 5 90
38 56 77 81 124 76 20 -2 42 -6 47 -10z m1301 -6 c0 -24 -23 -21 -28 4 -2 10
3 17 12 17 10 0 16 -9 16 -21z m-810 -29 c0 -16 -62 -36 -102 -34 -21 1 -38
-3 -38 -8 0 -6 -9 -8 -20 -5 -16 4 -21 -1 -26 -29 -3 -19 -11 -34 -16 -34 -6
0 -5 -6 2 -15 10 -12 10 -15 -1 -15 -8 0 -24 -3 -36 -6 -20 -6 -23 -3 -23 25
0 28 -3 31 -31 31 -16 0 -28 4 -25 8 3 5 19 7 36 4 27 -4 32 -1 41 28 7 20 23
37 40 44 34 14 199 19 199 6z m766 -83 c2 -71 0 -78 -16 -74 -16 4 -45 -22
-45 -41 0 -4 -4 -13 -8 -19 -5 -7 -5 -18 -1 -25 4 -6 3 -8 -2 -5 -6 3 -15 -3
-22 -14 -10 -15 -10 -19 2 -19 17 0 66 56 66 76 0 8 5 14 10 14 6 0 10 -5 10
-11 0 -6 42 28 93 75 50 47 100 86 109 86 10 0 25 -12 35 -26 9 -14 27 -30 40
-35 16 -6 23 -17 23 -34 0 -17 7 -28 23 -34 31 -12 37 -6 37 42 0 49 19 89 21
47 4 -50 -3 -86 -24 -128 -17 -34 -18 -45 -8 -55 10 -10 19 -5 42 23 16 19 29
38 29 42 0 4 9 8 20 8 19 0 20 -7 20 -151 l0 -152 -40 44 c-25 28 -39 38 -40
28 0 -24 21 -81 41 -110 21 -30 16 -39 -18 -39 -13 0 -23 -5 -23 -11 0 -6 9
-9 19 -6 23 6 46 -7 37 -22 -4 -6 -24 -15 -45 -21 -36 -9 -56 -35 -52 -63 1
-5 -3 -6 -9 -2 -6 4 -15 -7 -21 -24 -6 -17 -15 -31 -20 -31 -6 0 -21 -12 -35
-27 -13 -14 -42 -34 -63 -44 -37 -16 -40 -16 -67 1 -16 9 -40 29 -53 44 -19
21 -22 29 -13 38 10 10 17 10 33 0 17 -11 24 -10 44 10 30 28 31 38 6 38 -11
0 -23 5 -26 10 -9 15 14 40 36 40 12 0 19 7 19 20 0 10 10 25 23 32 21 12 21
13 -13 18 -47 7 -52 35 -12 70 28 24 29 27 12 37 -9 7 -20 24 -23 39 -4 22 1
34 25 56 29 27 30 30 14 47 -15 17 -16 20 -1 34 8 9 22 14 30 11 8 -4 15 -2
15 4 0 12 -24 22 -51 22 -13 0 -19 8 -20 25 -1 14 -2 31 -3 38 -1 6 9 12 21
12 30 1 30 19 0 23 -13 2 -31 -5 -42 -18 -10 -11 -28 -20 -40 -20 -12 0 -51
-23 -86 -51 -90 -72 -88 -71 -147 -43 -28 13 -53 28 -57 33 -8 14 5 41 21 41
19 0 64 92 64 130 0 20 5 30 15 30 8 0 22 11 31 26 11 16 24 24 37 22 19 -3
21 -11 23 -81z m-1116 57 c0 -11 -6 -15 -20 -11 -16 4 -21 -1 -26 -29 -7 -37
-18 -41 -59 -20 -25 13 -25 15 -8 25 10 6 14 11 9 11 -4 0 2 9 15 20 30 24 89
27 89 4z m1550 6 c0 -9 -11 -11 -74 -14 -11 -1 -21 -7 -24 -14 -6 -18 -19 -14
-25 7 -3 15 1 21 17 24 43 9 106 7 106 -3z m-1290 -70 c0 -5 -6 -10 -14 -10
-8 0 -18 5 -21 10 -3 6 3 10 14 10 12 0 21 -4 21 -10z m1853 -17 c-7 -2 -21
-2 -30 0 -10 3 -4 5 12 5 17 0 24 -2 18 -5z m44 1 c-3 -3 -12 -4 -19 -1 -8 3
-5 6 6 6 11 1 17 -2 13 -5z m-145 -17 c-6 -7 -10 -59 -10 -117 0 -81 -3 -105
-14 -105 -8 0 -13 11 -12 28 0 15 1 68 2 117 2 84 3 90 23 90 16 0 19 -3 11
-13z m-2382 -87 c0 -5 -7 -10 -15 -10 -8 0 -15 5 -15 10 0 6 7 10 15 10 8 0
15 -4 15 -10z m471 -80 c-2 -8 -6 -34 -8 -57 -5 -37 -3 -42 16 -45 21 -3 22
-8 25 -131 1 -81 -2 -131 -8 -136 -12 -9 -203 3 -214 13 -3 4 -8 61 -10 127
-5 135 -2 143 56 133 32 -6 32 -6 32 35 0 34 -3 41 -19 41 -11 0 -23 5 -26 10
-3 6 5 10 19 10 14 0 28 5 31 10 4 6 29 10 58 8 40 -3 51 -7 48 -18z m99 -20
c0 -6 -18 -10 -40 -10 -22 0 -40 4 -40 8 0 5 18 9 40 10 22 1 40 -3 40 -8z
m433 -7 c-7 -2 -19 -2 -25 0 -7 3 -2 5 12 5 14 0 19 -2 13 -5z m1445 -20 c-10
-2 -26 -2 -35 0 -10 3 -2 5 17 5 19 0 27 -2 18 -5z m-1478 -112 c0 -37 -26
-46 -97 -34 -90 16 -104 33 -27 34 32 0 68 4 79 9 32 14 45 11 45 -9z m1680
-55 c0 -2 -9 -6 -20 -9 -11 -3 -18 -1 -14 4 5 9 34 13 34 5z m-1777 -43 c-18
-2 -48 -2 -65 0 -18 2 -4 4 32 4 36 0 50 -2 33 -4z m-703 -13 c25 0 25 -1 22
-77 -1 -43 -5 -97 -8 -120 -5 -39 -8 -43 -34 -43 -44 0 -60 10 -75 47 -16 37
-21 184 -7 197 4 4 23 5 42 2 19 -3 46 -6 60 -6z m2314 -28 c3 -5 -9 -8 -27
-8 -18 0 -43 -3 -56 -8 -16 -6 -21 -5 -17 3 5 7 1 9 -8 5 -9 -3 -16 -1 -16 5
0 13 116 16 124 3z m-1781 -53 c3 -12 2 -31 -3 -42 -5 -12 -9 -18 -9 -13 -1 5
-7 3 -15 -3 -15 -13 -49 -4 -40 10 3 5 14 9 25 9 10 0 19 5 19 10 0 6 -4 10
-10 10 -14 0 -12 27 3 33 21 9 25 8 30 -14z m-328 -55 c-11 -8 -30 -17 -42
-19 -13 -3 -34 -7 -47 -10 -19 -4 -26 -13 -31 -45 -4 -25 -3 -46 4 -54 6 -7
41 -16 79 -20 37 -3 99 -10 137 -15 55 -6 72 -5 78 6 5 7 13 11 18 7 6 -3 18
1 27 9 33 28 52 29 52 2 0 -28 16 -41 34 -26 9 7 17 5 28 -9 20 -23 100 -27
91 -4 -4 10 3 14 21 14 14 0 26 -5 26 -11 0 -7 8 -18 18 -25 16 -12 16 -13 0
-19 -16 -6 -18 -22 -18 -131 0 -141 -1 -143 -78 -99 -23 13 -49 22 -57 19 -23
-9 -65 5 -65 21 0 11 -11 15 -36 15 -33 0 -76 22 -112 57 -7 7 -25 16 -40 19
-15 3 -34 8 -42 11 -8 3 -53 9 -98 13 -55 6 -90 14 -102 25 -10 9 -25 15 -32
12 -7 -2 -34 6 -60 19 -26 13 -57 24 -69 24 -38 0 -79 32 -79 61 0 27 1 27 89
34 60 5 96 3 110 -4 20 -11 21 -10 21 48 l0 60 53 10 c28 5 61 12 72 14 11 3
31 5 45 6 24 0 25 0 5 -15z m538 -64 c21 -59 16 -82 -18 -98 -33 -15 -37 -4
-29 70 10 97 21 103 47 28z m504 -32 c-3 -8 -6 -5 -6 6 -1 11 2 17 5 13 3 -3
4 -12 1 -19z m-312 -7 c8 -15 -36 -41 -69 -41 -28 0 -29 1 -12 19 10 11 28 22
40 24 11 2 24 5 28 6 4 0 9 -3 13 -8z m422 -27 c-9 -9 -27 6 -27 22 0 13 2 13
16 -1 9 -9 14 -18 11 -21z m618 -44 c16 -7 13 -9 -17 -9 -21 -1 -38 4 -38 9 0
12 27 12 55 0z m72 -16 c-3 -3 -12 -4 -19 -1 -8 3 -5 6 6 6 11 1 17 -2 13 -5z
m64 -22 c-7 -2 -18 1 -23 6 -8 8 -4 9 13 5 13 -4 18 -8 10 -11z m-2307 -11 c3
-4 3 -11 0 -14 -8 -8 -34 3 -34 14 0 11 27 12 34 0z m2471 -11 c-28 -12 -63
-12 -70 0 -4 6 12 10 42 9 36 0 43 -3 28 -9z m-2355 -37 c22 -10 40 -22 40
-26 0 -12 -74 -1 -109 17 -69 36 -7 44 69 9z m40 7 c0 -5 -4 -10 -9 -10 -6 0
-13 5 -16 10 -3 6 1 10 9 10 9 0 16 -4 16 -10z m-207 -20 c-3 -11 -7 -20 -9
-20 -2 0 -4 9 -4 20 0 11 4 20 9 20 5 0 7 -9 4 -20z m110 -19 c51 -24 53 -27
33 -53 -18 -24 -57 -23 -100 3 -39 22 -39 23 -30 56 7 27 30 25 97 -6z m987 7
c0 -6 -10 -8 -22 -4 -13 3 -33 6 -45 6 -13 0 -23 3 -23 8 0 4 20 6 45 4 25 -2
45 -9 45 -14z m-794 -19 c25 -7 44 -17 44 -25 0 -8 -3 -14 -7 -15 -5 0 -19 -2
-33 -4 -30 -3 -103 32 -95 45 8 13 36 13 91 -1z m803 -5 c2 -2 -21 -4 -52 -4
-31 0 -57 4 -57 8 0 8 100 4 109 -4z m-599 -9 c39 -20 38 -26 -3 -22 -40 5
-59 15 -52 28 8 13 21 11 55 -6z m-49 -25 c46 -24 44 -39 -3 -34 -18 1 -42 3
-53 4 -11 0 -27 5 -35 10 -13 9 -12 12 4 25 26 20 39 19 87 -5z m-411 -21 c34
-21 49 -36 46 -46 -3 -8 -6 -18 -6 -23 0 -9 -57 -19 -80 -13 -23 6 -41 59 -30
89 5 13 12 24 15 24 2 0 28 -14 55 -31z m204 11 c46 -21 62 -49 29 -51 -39 -3
-105 1 -114 7 -22 13 -1 64 27 64 6 0 32 -9 58 -20z m361 -20 c10 -11 13 -20
7 -20 -18 0 -62 22 -62 32 0 16 37 8 55 -12z m-175 -31 c13 -20 7 -22 -59 -14
-45 5 -61 11 -61 22 0 13 10 15 56 11 32 -3 59 -11 64 -19z m147 5 c47 -18 56
-40 21 -46 -33 -6 -113 36 -102 53 8 13 33 11 81 -7z m510 10 c-3 -3 -12 -4
-19 -1 -8 3 -5 6 6 6 11 1 17 -2 13 -5z m-910 -27 c56 -17 67 -28 50 -52 -17
-22 -62 -28 -104 -13 -34 12 -37 18 -27 56 7 25 22 27 81 9z m344 -27 c21 -17
22 -21 9 -30 -16 -10 -69 -4 -84 11 -12 11 12 39 34 39 10 0 28 -9 41 -20z
m209 10 c13 -8 13 -10 -2 -10 -9 0 -20 5 -23 10 -8 13 5 13 25 0z m-783 -12
c4 -7 6 -21 5 -30 -4 -22 16 -23 39 -2 16 15 20 15 34 1 37 -38 -25 -73 -87
-49 -35 14 -38 18 -38 54 0 31 4 38 19 38 11 0 23 -6 28 -12z m408 -10 c14 -6
25 -15 25 -19 0 -6 -97 -22 -127 -21 -15 1 -14 20 2 36 19 19 63 21 100 4z
m852 -30 c55 -13 61 -21 38 -51 -12 -17 -20 -18 -104 -8 -85 11 -141 24 -141
35 0 3 15 0 32 -5 18 -5 51 -9 73 -8 l40 0 -50 16 c-46 15 -48 17 -25 24 38
11 79 10 137 -3z m-1076 -14 c73 -24 63 -45 -21 -47 -64 -2 -65 -2 -61 23 2
21 16 39 29 40 2 0 26 -7 53 -16z m159 -23 c0 -5 -10 -11 -22 -14 -13 -3 -33
-9 -45 -12 -18 -6 -23 -3 -23 10 0 11 5 15 15 11 8 -3 15 -1 15 4 0 6 14 10
30 10 17 0 30 -4 30 -9z m30 -11 c0 -5 -5 -10 -11 -10 -5 0 -7 5 -4 10 3 6 8
10 11 10 2 0 4 -4 4 -10z m105 -31 c-11 -17 -34 -10 -32 10 1 16 5 18 19 10
10 -6 16 -14 13 -20z m-445 1 c0 -5 -4 -10 -10 -10 -5 0 -10 5 -10 10 0 6 5
10 10 10 6 0 10 -4 10 -10z m995 0 c8 -13 -15 -13 -35 0 -12 8 -11 10 7 10 12
0 25 -4 28 -10z m80 0 c17 -7 15 -9 -12 -9 -17 -1 -35 4 -38 9 -7 12 22 12 50
0z m-999 -21 c6 -10 -11 -11 -43 -3 -13 4 -21 10 -18 14 6 9 53 1 61 -11z
m899 1 c7 -12 -32 -12 -60 0 -16 7 -13 9 17 9 20 1 40 -3 43 -9z m-445 -26 c0
-2 -7 -4 -15 -4 -8 0 -15 4 -15 10 0 5 7 7 15 4 8 -4 15 -8 15 -10z m380 6 c0
-5 -12 -10 -26 -10 -14 0 -23 4 -19 10 3 6 15 10 26 10 10 0 19 -4 19 -10z
m-173 -36 c-3 -3 -12 -4 -19 -1 -8 3 -5 6 6 6 11 1 17 -2 13 -5z m-407 -13 c3
-1 -2 -6 -10 -11 -19 -12 -67 -13 -75 -1 -7 13 53 21 85 12z m223 -27 c-3 -14
-67 -24 -78 -13 -7 7 -2 16 15 29 21 16 28 17 45 6 11 -7 19 -17 18 -22z
m-103 11 c0 -8 -4 -15 -10 -15 -5 0 -10 7 -10 15 0 8 5 15 10 15 6 0 10 -7 10
-15z m2020 1 c0 -2 -7 -7 -16 -10 -8 -3 -12 -2 -9 4 6 10 25 14 25 6z m-1775
-45 c0 -28 -6 -38 -30 -51 -16 -9 -36 -15 -43 -12 -7 2 -16 -5 -19 -16 -5 -20
-39 -40 -49 -29 -3 2 -6 17 -7 33 -2 25 2 29 24 30 32 1 49 11 49 29 0 7 10
16 23 18 l22 4 -22 8 c-31 10 -20 22 19 21 31 -1 33 -3 33 -35z m1303 8 c24
-11 52 -19 63 -19 11 0 19 -7 19 -17 0 -15 2 -16 10 -3 5 8 7 23 4 33 -10 32
3 17 40 -45 20 -35 50 -79 67 -98 27 -32 30 -34 43 -18 7 10 15 17 17 15 2 -1
-1 3 -8 9 -17 15 -16 24 1 24 12 0 23 -19 39 -72 4 -11 -2 -18 -16 -22 -23 -6
-58 25 -134 119 l-32 40 -20 -24 c-17 -23 -18 -27 -4 -48 8 -12 13 -30 9 -38
-3 -8 -2 -15 2 -15 13 0 13 -83 1 -100 -10 -13 -10 -13 -6 0 4 13 -10 15 -92
15 -53 0 -102 -4 -109 -9 -23 -14 -234 -9 -243 6 -5 7 -9 36 -9 64 0 48 2 52
28 59 15 3 34 13 42 20 20 17 106 30 114 17 11 -18 -5 -43 -24 -37 -10 3 -21
1 -25 -5 -4 -7 24 -10 84 -10 49 0 93 -4 96 -10 10 -15 42 -12 60 7 16 15 15
17 -10 30 -14 8 -37 15 -51 16 -14 1 -28 7 -32 12 -7 10 -78 55 -88 55 -2 0
-4 -9 -4 -20 0 -36 -19 -21 -22 17 -3 33 -7 38 -38 45 -55 14 -62 17 -55 28
11 17 232 0 283 -21z m-1573 1 c3 -5 1 -10 -4 -10 -6 0 -11 5 -11 10 0 6 2 10
4 10 3 0 8 -4 11 -10z m-148 -6 c-3 -3 -12 -4 -19 -1 -8 3 -5 6 6 6 11 1 17
-2 13 -5z m129 -12 c21 -17 38 -72 23 -72 -10 0 -69 59 -69 69 0 9 11 21 19
21 3 -1 15 -9 27 -18z m404 10 c0 -13 -60 -34 -78 -27 -16 6 -15 8 2 21 21 15
76 20 76 6z m-310 -47 c0 -34 -32 -50 -48 -24 -15 24 -8 39 19 39 13 0 18 4
13 12 -4 7 -3 8 4 4 7 -4 12 -18 12 -31z m-215 15 c3 -5 -3 -10 -14 -10 -11 0
-23 5 -26 10 -3 6 3 10 14 10 11 0 23 -4 26 -10z m-225 -40 c0 -5 -11 -10 -24
-10 -14 0 -28 -5 -31 -11 -4 -6 -20 -7 -38 -3 -58 12 -53 19 18 25 39 3 71 6
73 7 1 1 2 -2 2 -8z m470 -26 c0 -8 -4 -12 -10 -9 -5 3 -10 13 -10 21 0 8 5
12 10 9 6 -3 10 -13 10 -21z m190 12 c0 -10 -7 -12 -22 -8 -21 5 -21 6 -2 13
10 4 20 8 22 8 1 1 2 -5 2 -13z m-622 -24 c6 -18 -15 -14 -22 4 -4 10 -1 14 6
12 6 -2 14 -10 16 -16z m796 -29 c7 3 28 2 47 -2 l34 -8 -27 -13 c-15 -7 -25
-17 -22 -21 8 -13 -4 -11 -39 8 -18 9 -40 16 -49 14 -12 -1 -18 4 -18 18 0 18
3 19 30 9 17 -5 36 -8 44 -5z m616 -22 c0 -4 -13 -7 -29 -7 -17 0 -28 2 -26 5
5 9 55 10 55 2z m53 2 c-7 -2 -21 -2 -30 0 -10 3 -4 5 12 5 17 0 24 -2 18 -5z
m-495 -88 c-15 -31 -31 -48 -47 -52 -14 -3 -39 -14 -56 -24 -36 -22 -96 -29
-102 -13 -2 7 14 14 41 18 29 5 45 13 48 24 3 9 18 24 34 32 16 8 32 19 35 23
7 10 50 34 61 36 4 1 -2 -19 -14 -44z m422 -10 c0 -25 -4 -45 -10 -45 -5 0
-10 20 -10 45 0 25 5 45 10 45 6 0 10 -20 10 -45z m-1010 -5 c0 -5 -12 -10
-27 -10 -22 0 -25 2 -13 10 20 13 40 13 40 0z m200 -4 c16 -20 -1 -49 -31 -52
-34 -4 -110 18 -106 31 2 5 16 11 30 13 15 2 27 8 27 13 0 15 66 10 80 -5z
m271 -6 c-12 -11 -27 -17 -33 -14 -14 9 12 34 36 34 21 -1 21 -1 -3 -20z
m-651 -9 c0 -26 -17 -36 -35 -21 -8 6 -19 9 -25 5 -15 -9 -80 3 -80 15 0 8 32
13 113 18 21 2 27 -2 27 -17z m560 9 c0 -5 -10 -10 -22 -9 -22 0 -22 1 -3 9
11 5 21 9 23 9 1 1 2 -3 2 -9z m-414 -26 c29 -12 33 -18 24 -29 -7 -9 -23 -12
-47 -8 -23 4 -38 2 -43 -7 -9 -14 -70 -4 -70 12 0 6 11 8 26 4 17 -5 23 -3 19
4 -3 5 -13 10 -21 10 -8 0 -14 9 -14 19 0 17 6 18 46 14 25 -2 61 -11 80 -19z
m379 -4 c21 -9 8 -14 -27 -11 -10 1 -18 -2 -18 -6 0 -5 -13 -10 -30 -11 -32
-2 -38 6 -18 26 14 14 63 15 93 2z m-226 -38 c3 -5 15 -12 26 -15 11 -2 0 -4
-25 -4 -25 0 -62 -3 -82 -8 -31 -6 -38 -5 -38 8 0 9 8 21 18 27 19 12 92 6
101 -8z m153 -24 c-5 -5 -29 -12 -52 -15 -34 -5 -42 -3 -38 8 3 8 12 13 21 11
8 -1 18 1 21 6 3 5 17 7 31 4 17 -3 23 -8 17 -14z m-335 6 c-3 -3 -12 -4 -19
-1 -8 3 -5 6 6 6 11 1 17 -2 13 -5z m378 -14 c-3 -5 -13 -10 -21 -10 -8 0 -12
5 -9 10 3 6 13 10 21 10 8 0 12 -4 9 -10z m55 0 c-20 -13 -33 -13 -25 0 3 6
14 10 23 10 15 0 15 -2 2 -10z"/>
<path d="M1585 490 c-4 -6 -30 -26 -58 -45 -64 -43 -40 -47 51 -9 61 27 77 46
46 58 -22 9 -32 8 -39 -4z"/>
<path d="M1690 2590 c0 -5 5 -10 11 -10 5 0 7 5 4 10 -3 6 -8 10 -11 10 -2 0
-4 -4 -4 -10z"/>
<path d="M78 2463 c7 -3 16 -2 19 1 4 3 -2 6 -13 5 -11 0 -14 -3 -6 -6z"/>
<path d="M1890 1445 c0 -9 6 -12 15 -9 8 4 12 10 9 15 -8 14 -24 10 -24 -6z"/>
<path d="M588 1543 c6 -2 18 -2 25 0 6 3 1 5 -13 5 -14 0 -19 -2 -12 -5z"/>
<path d="M560 1505 c0 -28 16 -31 44 -10 20 15 22 14 -29 30 -11 3 -15 -3 -15
-20z"/>
<path d="M1961 406 c10 -9 69 -36 69 -32 0 6 -55 36 -66 36 -4 0 -5 -2 -3 -4z"/>
<path d="M2345 280 c-3 -5 -1 -10 4 -10 6 0 11 5 11 10 0 6 -2 10 -4 10 -3 0
-8 -4 -11 -10z"/>
<path d="M733 173 c9 -2 23 -2 30 0 6 3 -1 5 -18 5 -16 0 -22 -2 -12 -5z"/>
<path d="M1335 247 c-18 -11 -32 -37 -20 -37 16 0 55 26 55 37 0 16 -9 16 -35
0z"/>
<path d="M50 104 l-25 -15 25 5 c14 3 28 6 33 6 4 0 7 5 7 10 0 14 -10 12 -40
-6z"/>
<path d="M188 112 c-16 -2 -28 -8 -28 -13 0 -5 12 -6 28 -3 46 11 46 22 0 16z"/>
<path d="M1685 83 c-39 -10 -39 -23 1 -21 21 1 33 3 26 6 -7 2 -10 8 -6 13 3
5 4 8 2 8 -2 -1 -12 -3 -23 -6z"/>
<path d="M2500 24 c-10 -12 -8 -14 14 -14 28 0 35 14 12 23 -8 3 -20 -1 -26
-9z"/>
</g>
</svg>
